# AST/ASF file generated using VICON BodyLanguage
# -----------------------------------------------
:version 1.10
:name VICON
:units
  mass 1.0
  length 0.45
  angle deg
:documentation
   .ast/.asf automatically generated from VICON data using
   VICON BodyBuilder and BodyLanguage model FoxedUp or BRILLIANT.MOD
:root
   order TX TY TZ RX RY RZ
   axis XYZ
   position 0 0 0  
   orientation 0 -0 0 
:bonedata
  begin
     id 1 
     name lhipjoint
     direction 0.515797 -0.759363 0.396637 
     length 2.47888 
     axis 0 -0 0  XYZ
  end
  begin
     id 2 
     name lfemur
     direction 0.34202 -0.939693 0  
     length 6.81885  
     axis 0 -0 20  XYZ
    dof rx ry rz
    limits (-160.0 20.0)
           (-70.0 70.0)
           (-60.0 70.0)
  end
  begin
     id 3 
     name ltibia
     direction 0.342037 -0.939687 0   
     length 7.89258   
     axis 0 -0 20   XYZ
    dof rx
    limits (-10.0 170.0)
  end
  begin
     id 4 
     name lfoot
     direction 0.173497 -0.476678 0.861787   
     length 2.51543   
     axis -90 -1.13533e-015 20   XYZ
    dof rx rz
    limits (-45.0 90.0)
           (-70.0 20.0)
  end
  begin
     id 5 
     name ltoes
     direction 1.53564e-011 -4.21897e-011 1   
     length 1.21388   
     axis -90 -1.13533e-015 20   XYZ
    dof rx
    limits (-90.0 20.0)
  end
  begin
     id 6 
     name rhipjoint
     direction -0.489454 -0.772941 0.403729   
     length 2.43534  
     axis 0 -0 0  XYZ 
  end
  begin
     id 7 
     name rfemur
     direction -0.34202 -0.939693 0   
     length 7.10357   
     axis 0 -0 -20   XYZ
    dof rx ry rz
    limits (-160.0 20.0)
           (-70.0 70.0)
           (-70.0 60.0)
  end
  begin
     id 8 
     name rtibia
     direction -0.34202 -0.939693 0   
     length 9.16127   
     axis 0 -0 -20   XYZ
    dof rx
    limits (-10.0 170.0)
 end
 begin
     id 9 
     name rfoot
     direction -0.270974 -0.748671 0.605033   
     length 1.74894  
     axis -90 1.13533e-015 -20   XYZ
    dof rx rz
    limits (-45.0 90.0)
           (-20.0 70.0)
  end
  begin
     id 10 
     name rtoes
     direction -1.53557e-011 -4.21759e-011 1   
     length 0.787585   
     axis -90 1.13533e-015 -20   XYZ
    dof rx
    limits (-90.0 20.0)
  end
  begin
     id 11 
     name lowerback
     direction -0.0140249 0.999561 0.0260968   
     length 2.16963   
     axis 0 -0 0   XYZ
    dof rx ry rz
    limits (-20.0 45.0)
           (-30.0 30.0)
           (-30.0 30.0)
  end
  begin
     id 12 
     name upperback
     direction 0.00860018 0.999959 -0.002711   
     length 2.1726   
     axis 0 -0 0   XYZ
    dof rx ry rz
    limits (-20.0 45.0)
           (-30.0 30.0)
           (-30.0 30.0)
  end
  begin
     id 13 
     name thorax
     direction 0.015211 0.999782 -0.0143191   
     length 2.17061   
     axis 0 -0 0   XYZ
    dof rx ry rz
    limits (-20.0 45.0)
           (-30.0 30.0)
           (-30.0 30.0)
  end
  begin
     id 14 
     name lowerneck
     direction -0.0140143 0.999447 0.030145   
     length 2.26749   
     axis 0 -0 0   XYZ
    dof rx ry rz
    limits (-20.0 45.0)
           (-30.0 30.0)
           (-30.0 30.0)
  end
  begin
     id 15 
     name upperneck
     direction 0.118062 0.961438 -0.248392   
     length 2.22728   
     axis 0 -0 0   XYZ
    dof rx ry rz
    limits (-20.0 45.0)
           (-30.0 30.0)
           (-30.0 30.0)
  end
  begin
     id 16
     name head
     direction 0.0431885 0.9954 -0.085514  
     length 2.28786  
     axis 0 -0 0   XYZ
    dof rx ry rz
    limits (-20.0 45.0)
           (-30.0 30.0)
           (-30.0 30.0)
  end
  begin
     id 17 
     name lclavicle
     direction 0.912126 0.409548 0.0172323  
     length 4.31571  
     axis 0 -0 0   XYZ
    dof ry rz
    limits (-20.0 10.0)
           (0.0 20.0)
  end
  begin
     id 18 
     name lhumerus
     direction 1 -4.48977e-011 1.93091e-027   
     length 5.13658   
     axis 180 -30 -90   XYZ
    dof rx ry rz
    limits (-60.0 90.0)
           (-90.0 90.0)
           (-90.0 90.0)
  end
  begin
     id 19
     name lradius
     direction 1 -4.48916e-011 6.84018e-027   
     length 3.22473   
     axis 180 -30 -90   XYZ
    dof rx
    limits (-10.0 170.0)
  end
  begin
     id 20
     name lwrist
     direction 1 -4.48987e-011 7.01981e-027   
     length 1.61236   
     axis -4.37994e-015 90 90   XYZ
    dof ry
    limits (-180.0 0.0)
 end
  begin
     id 21 
     name lhand
     direction 1 -4.49037e-011 1.40335e-026   
     length 0.936406   
     axis -8.96029e-015 90 90   XYZ
    dof rx rz
    limits (-90.0 90.0)
           (-45.0 45.0)
  end
  begin
     id 22 
     name lfingers
     direction 1 -4.48886e-011 2.8104e-026   
     length 0.754955   
     axis -1.79203e-014 90 90   XYZ
    dof rx
    limits (0.0 90.0)
  end
  begin
     id 23
     name lthumb
     direction 0.707107 -6.34937e-011 0.707107   
     length 1.08397   
     axis -90 45 -4.48555e-014   XYZ
    dof rx rz
    limits (-45.0 45.0)
           (-45.0 45.0)
  end
  begin
     id 24 
     name rclavicle
     direction -0.947962 0.317997 0.0156638   
     length 4.86918  
     axis 0 -0 0   XYZ 
    dof ry rz
    limits (-10.0 20.0)
           (-20.0 0.0)
  end
  begin
     id 25 
     name rhumerus
     direction -1 -4.48951e-011 2.80534e-018  
     length 5.60911   
     axis 180 30 90   XYZ
    dof rx ry rz
    limits (-90.0 60.0)
           (-90.0 90.0)
           (-90.0 90.0)
  end
  begin
     id 26 
     name rradius
     direction -1 -4.4898e-011 2.11315e-027   
     length 3.38704   
     axis 180 30 90   XYZ
    dof rx
    limits (-10.0 170.0)
  end
  begin
     id 27 
     name rwrist
     direction -1 -4.48933e-011 7.02314e-027   
     length 1.69352   
     axis -4.37994e-015 -90 -90   XYZ
    dof ry
    limits (-180.0 0.0)
  end
  begin
     id 28
     name rhand
     direction -1 -4.48937e-011 1.40458e-026   
     length 0.755878   
     axis -8.96029e-015 -90 -90   XYZ
    dof rx rz
    limits (-90.0 90.0)
           (-45.0 45.0)
  end
  begin
     id 29
     name rfingers
     direction -1 -4.4901e-011 2.80737e-026   
     length 0.609409   
     axis -1.79203e-014 -90 -90   XYZ
    dof rx
    limits (0.0 90.0)
  end
  begin
     id 30
     name rthumb
     direction -0.707107 -6.34968e-011 0.707107   
     length 0.874992   
     axis -90 -45 4.48555e-014   XYZ
    dof rx rz
    limits (-45.0 45.0)
           (-45.0 45.0)
  end
:hierarchy
  begin
    root lhipjoint rhipjoint lowerback
    lhipjoint lfemur
    lfemur ltibia
    ltibia lfoot
    lfoot ltoes
    rhipjoint rfemur
    rfemur rtibia
    rtibia rfoot
    rfoot rtoes
    lowerback upperback
    upperback thorax
    thorax lowerneck lclavicle rclavicle
    lowerneck upperneck
    upperneck head
    lclavicle lhumerus
    lhumerus lradius
    lradius lwrist
    lwrist lhand lthumb
    lhand lfingers
    rclavicle rhumerus
    rhumerus rradius
    rradius rwrist
    rwrist rhand rthumb
    rhand rfingers
  end

#!OML:ASF C:\ViconDB\ViconDB\414\Spring2016\041811\Spring2016.ASF
:FULLY-SPECIFIED
:DEGREES
1
root 6.85148 17.6509 36.5098 -170.968 -2.66176 -177.869
lowerback 6.64457 2.68416 -0.799522
upperback 2.2806 3.40653 1.27459
thorax -1.49381 1.63679 1.49123
lowerneck -12.3581 -3.06191 -10.1552
upperneck 23.6555 -7.41913 14.9112
head 10.5093 -3.28637 6.07418
rclavicle 5.40694e-014 -1.05356e-014
rhumerus -43.1931 0.123565 -92.2669
rradius 98.6953
rwrist 12.7991
rhand -35.983 -13.5271
rfingers 7.12502
rthumb -9.0934 -43.3111
lclavicle 5.40694e-014 -1.05356e-014
lhumerus -59.0179 -12.2531 94.9557
lradius 58.492
lwrist -16.2371
lhand -31.3258 13.9115
lfingers 7.12502
lthumb -4.59773 43.8416
rfemur -19.4164 -8.00636 27.0702
rtibia 34.0714
rfoot -169.027 13.399
rtoes -15.1872
lfemur -8.61935 -6.63978 -10.4793
ltibia 43.448
lfoot -14.674 -10.8424
ltoes -21.0607
2
root 6.82901 17.6424 36.4855 -170.712 -2.45544 -177.859
lowerback 6.79944 2.65784 -0.670983
upperback 2.32386 3.37264 1.20515
thorax -1.52247 1.61779 1.34513
lowerneck -12.2323 -3.03938 -10.3315
upperneck 23.8062 -7.43384 14.9887
head 10.5497 -3.31549 6.1397
rclavicle -2.38542e-014 -5.36719e-015
rhumerus -43.4327 0.147358 -92.3991
rradius 97.8596
rwrist 13.0501
rhand -36.1319 -13.1538
rfingers 7.12502
rthumb -9.23707 -42.9314
lclavicle -2.38542e-014 -5.36719e-015
lhumerus -58.5311 -12.2057 95.1664
lradius 59.1287
lwrist -15.9874
lhand -31.5705 13.9076
lfingers 7.12502
lthumb -4.83403 43.8324
rfemur -19.8185 -7.73165 26.9485
rtibia 34.501
rfoot -169.202 13.5432
rtoes -14.8833
lfemur -8.56874 -6.99288 -10.8362
ltibia 43.389
lfoot -15.3696 -10.0164
ltoes -21.4328
3
root 6.82557 17.6254 36.4678 -170.153 -2.34511 -178.061
lowerback 6.70947 2.61839 -0.917146
upperback 2.30894 3.30732 1.03727
thorax -1.49006 1.58784 1.31915
lowerneck -12.1781 -3.04181 -10.2238
upperneck 23.9527 -7.50357 14.927
head 10.596 -3.35355 6.09226
rclavicle -2.19657e-014 -1.11319e-014
rhumerus -43.6279 0.066662 -92.7046
rradius 96.9648
rwrist 13.2257
rhand -36.332 -13.2089
rfingers 7.12502
rthumb -9.43014 -42.9779
lclavicle -2.19657e-014 -1.11319e-014
lhumerus -57.984 -12.2959 95.2803
lradius 59.7331
lwrist -15.6349
lhand -31.6124 13.7267
lfingers 7.12502
lthumb -4.87448 43.6506
rfemur -20.7001 -7.25118 26.8112
rtibia 35.0888
rfoot -169.576 13.4585
rtoes -14.4485
lfemur -8.98136 -6.8464 -11.0409
ltibia 43.3222
lfoot -15.8212 -9.82219
ltoes -21.44
4
root 6.81668 17.6099 36.4442 -169.747 -2.17426 -178.11
lowerback 6.7824 2.61007 -1.00912
upperback 2.27811 3.29073 1.00018
thorax -1.56475 1.58071 1.3296
lowerneck -12.0404 -3.01916 -10.3506
upperneck 24.1831 -7.50533 14.8595
head 10.6533 -3.38711 6.09855
rclavicle 3.11595e-014 -6.95746e-015
rhumerus -43.9981 -0.0246907 -92.684
rradius 95.9942
rwrist 13.5419
rhand -35.7016 -13.046
rfingers 7.12502
rthumb -8.82189 -42.8416
lclavicle 3.11595e-014 -6.95746e-015
lhumerus -57.476 -12.4935 95.6853
lradius 60.466
lwrist -14.8205
lhand -31.6544 14.0178
lfingers 7.12502
lthumb -4.91504 43.9408
rfemur -21.4577 -6.94892 26.7456
rtibia 35.8177
rfoot -169.848 13.6326
rtoes -14.0243
lfemur -9.1099 -6.80406 -11.2232
ltibia 43.1961
lfoot -16.3864 -9.37711
ltoes -21.8294
5
root 6.8104 17.5939 36.4196 -169.181 -1.85581 -178.247
lowerback 6.71922 2.55299 -1.19306
upperback 2.24134 3.20528 0.802409
thorax -1.5636 1.54106 1.2381
lowerneck -11.9912 -2.95592 -10.2191
upperneck 24.3798 -7.4997 14.7904
head 10.706 -3.39227 6.05589
rclavicle 3.11595e-014 -1.23246e-014
rhumerus -44.3407 0.160986 -93.1085
rradius 95.0615
rwrist 13.4495
rhand -36.252 -13.4602
rfingers 7.12502
rthumb -9.35297 -43.2327
lclavicle 3.11595e-014 -1.23246e-014
lhumerus -56.896 -12.5404 95.6921
lradius 61.132
lwrist -14.9853
lhand -31.7698 14.0898
lfingers 7.12502
lthumb -5.02644 44.0102
rfemur -22.4381 -6.45514 26.5789
rtibia 36.6334
rfoot -170.151 13.7725
rtoes -13.5667
lfemur -9.32505 -6.88082 -11.5816
ltibia 43.0092
lfoot -17.1306 -8.6802
ltoes -21.9112
6
root 6.72135 17.5488 36.3842 -170.034 -4.0232 -180.234
lowerback 7.92037 1.62257 -1.58453
upperback 2.76174 1.8593 0.226523
thorax -1.64365 0.844984 0.953615
lowerneck -11.9586 -2.93816 -10.4939
upperneck 24.5186 -7.47065 14.8513
head 10.7576 -3.40375 6.13919
rclavicle -1.23743e-014 1.78906e-015
rhumerus -44.4903 0.167128 -93.2383
rradius 93.8671
rwrist 13.5101
rhand -36.6913 -13.5703
rfingers 7.12502
rthumb -9.77682 -43.3234
lclavicle -1.23743e-014 1.78906e-015
lhumerus -56.2305 -12.4929 95.9367
lradius 61.9387
lwrist -14.7571
lhand -31.8235 13.6992
lfingers 7.12502
lthumb -5.07834 43.6183
rfemur -21.9579 -9.11196 24.5275
rtibia 37.5805
rfoot -170.452 14.3409
rtoes -13.1232
lfemur -8.64635 -8.95882 -13.5394
ltibia 42.7708
lfoot -17.2356 -8.73562
ltoes -21.8927
7
root 6.70816 17.5252 36.3568 -169.744 -3.87976 -180.469
lowerback 8.24628 1.53809 -1.72441
upperback 2.7339 1.71975 0.0196823
thorax -1.8464 0.775099 0.824167
lowerneck -11.8232 -2.88011 -10.4453
upperneck 24.7723 -7.49121 14.8045
head 10.8218 -3.43447 6.119
rclavicle 3.08613e-014 -8.15017e-015
rhumerus -44.8678 0.064279 -93.4188
rradius 92.636
rwrist 14.117
rhand -36.3213 -13.8889
rfingers 7.12502
rthumb -9.41985 -43.6584
lclavicle 3.08613e-014 -8.15017e-015
lhumerus -55.626 -12.9304 96.0441
lradius 62.7748
lwrist -14.2003
lhand -31.7466 13.6787
lfingers 7.12502
lthumb -5.0041 43.5996
rfemur -22.6753 -8.73916 24.2433
rtibia 38.4833
rfoot -170.885 14.4021
rtoes -12.6765
lfemur -8.53958 -9.05113 -13.9671
ltibia 42.4673
lfoot -17.864 -8.18443
ltoes -22.0261
8
root 6.70694 17.4996 36.3339 -169.414 -3.52661 -180.51
lowerback 8.56766 1.52601 -1.86732
upperback 2.68954 1.67782 -0.0860269
thorax -2.06967 0.754457 0.791575
lowerneck -11.6739 -2.84221 -10.4455
upperneck 25.0707 -7.49236 14.6152
head 10.8926 -3.47347 6.05757
rclavicle -2.5519e-014 4.37326e-015
rhumerus -45.3197 -0.0323708 -93.6648
rradius 91.4381
rwrist 14.1159
rhand -36.1461 -13.6867
rfingers 7.12502
rthumb -9.25078 -43.4637
lclavicle -2.5519e-014 4.37326e-015
lhumerus -55.1675 -13.2011 96.2542
lradius 63.6255
lwrist -14.0182
lhand -31.8986 13.4235
lfingers 7.12502
lthumb -5.15086 43.3409
rfemur -23.5115 -7.94583 24.2021
rtibia 39.4804
rfoot -171.382 14.3615
rtoes -12.1252
lfemur -8.43388 -9.01853 -14.1742
ltibia 42.0886
lfoot -18.4488 -7.36473
ltoes -21.9786
9
root 6.69628 17.4756 36.2912 -168.969 -3.20627 -180.805
lowerback 8.53195 1.46814 -2.0995
upperback 2.68327 1.57472 -0.291592
thorax -2.05406 0.702506 0.721212
lowerneck -11.4907 -2.74946 -10.6431
upperneck 25.2877 -7.43485 14.6868
head 10.9352 -3.48181 6.13791
rclavicle -1.91082e-014 5.14355e-015
rhumerus -45.6866 -0.0570854 -93.8104
rradius 89.9946
rwrist 14.3574
rhand -35.9514 -13.9854
rfingers 7.12502
rthumb -9.06292 -43.7707
lclavicle -1.91082e-014 5.14355e-015
lhumerus -54.7141 -13.6926 96.2458
lradius 64.4747
lwrist -14.2433
lhand -31.8694 12.589
lfingers 7.12502
lthumb -5.12263 42.5071
rfemur -24.3492 -7.58284 23.8214
rtibia 40.4199
rfoot -171.632 14.5393
rtoes -11.6165
lfemur -8.31419 -9.05917 -14.7066
ltibia 41.6495
lfoot -19.3171 -6.93353
ltoes -22.2246
10
root 6.68739 17.4405 36.252 -168.514 -2.89992 -181.057
lowerback 8.5551 1.38184 -2.25178
upperback 2.65203 1.4367 -0.540826
thorax -2.09263 0.633547 0.563
lowerneck -11.3973 -2.68464 -10.595
upperneck 25.6743 -7.42644 14.4836
head 11.0472 -3.51583 6.06639
rclavicle -5.62188e-015 2.26118e-015
rhumerus -46.1986 -0.136892 -94.1066
rradius 88.7167
rwrist 14.3795
rhand -35.9513 -14.0829
rfingers 7.12502
rthumb -9.06283 -43.8682
lclavicle -5.62188e-015 2.26118e-015
lhumerus -54.1423 -13.9859 96.3523
lradius 65.4019
lwrist -14.4053
lhand -32.0257 12.5307
lfingers 7.12502
lthumb -5.27352 42.445
rfemur -25.2731 -6.99302 23.501
rtibia 41.4476
rfoot -172.012 14.5493
rtoes -11.3562
lfemur -8.13857 -9.2172 -15.2161
ltibia 41.162
lfoot -20.0523 -6.26168
ltoes -22.5134
11
root 6.6834 17.4136 36.2064 -167.922 -2.576 -181.224
lowerback 8.41556 1.31427 -2.37845
upperback 2.57286 1.33821 -0.733844
thorax -2.09291 0.587164 0.446881
lowerneck -11.1824 -2.65379 -10.4673
upperneck 25.9946 -7.43106 14.1133
head 11.1025 -3.56731 5.91127
rclavicle -1.16041e-014 1.55549e-014
rhumerus -46.537 -0.414391 -94.345
rradius 87.2337
rwrist 14.1922
rhand -36.0108 -14.1887
rfingers 7.12502
rthumb -9.12026 -43.9715
lclavicle -1.16041e-014 1.55549e-014
lhumerus -53.7096 -14.8911 96.685
lradius 67.1039
lwrist -12.1672
lhand -31.6816 13.0188
lfingers 7.12502
lthumb -4.94133 42.9412
rfemur -26.3551 -6.57648 23.3117
rtibia 42.4882
rfoot -172.181 14.7043
rtoes -11.0964
lfemur -8.14816 -9.3654 -15.585
ltibia 40.6659
lfoot -21.0868 -5.34522
ltoes -23.6993
12
root 6.67177 17.3845 36.1621 -167.729 -2.27116 -181.418
lowerback 8.75794 1.2172 -2.54325
upperback 2.60536 1.16775 -0.850919
thorax -2.24532 0.498019 0.430575
lowerneck -11.1036 -2.63419 -10.4412
upperneck 26.3871 -7.39415 13.6616
head 11.2078 -3.61031 5.75114
rclavicle 8.94531e-015 -7.15625e-015
rhumerus -47.0016 -0.47159 -94.3983
rradius 85.7092
rwrist 14.4623
rhand -36.0721 -14.0911
rfingers 7.12502
rthumb -9.17935 -43.8713
lclavicle 8.94531e-015 -7.15625e-015
lhumerus -53.0758 -15.3712 96.9265
lradius 69.4199
lwrist -7.88753
lhand -30.76 13.4679
lfingers 7.12502
lthumb -4.05135 43.4091
rfemur -27.0006 -6.24082 23.0128
rtibia 43.5412
rfoot -172.338 14.8499
rtoes -10.6872
lfemur -7.76173 -9.57103 -16.0829
ltibia 40.225
lfoot -21.7954 -4.71444
ltoes -23.6403
